<?xml version="1.0" standalone="no"?><!DOCTYPE svg PUBLIC "-//W3C//DTD SVG 1.1//EN" "http://www.w3.org/Graphics/SVG/1.1/DTD/svg11.dtd"><svg t="1759841184073" class="icon" viewBox="0 0 1024 1024" version="1.1" xmlns="http://www.w3.org/2000/svg" p-id="8936" xmlns:xlink="http://www.w3.org/1999/xlink" width="200" height="200"><path d="M0 0m128 0l768 0q128 0 128 128l0 768q0 128-128 128l-768 0q-128 0-128-128l0-768q0-128 128-128Z" fill="#FFFFFF" p-id="8937"></path><path d="M800.96 912h-49.92v-49.92h49.92v49.92z m0-106.88h-49.92V755.2h49.92v49.92z m0-107.52h-49.92v-49.92h49.92v49.92z m0-107.2h-49.92v-49.92h49.92v49.92z m0-106.88h-49.92v-49.92h49.92v49.92z m0-106.88h-49.92v-49.92h49.92v49.92z m0-107.52h-49.92V219.2h49.92v49.92z m0-107.2h-49.92V112h49.92v49.92z" fill="#2D52D6" opacity=".2" p-id="8938"></path><path d="M193.6 218.88H912V268.8H193.6z" fill="#2D52D6" opacity=".2" p-id="8939"></path><path d="M229.44 150.4v187.52L112 244.16 229.44 150.4z" fill="#2D52D6" opacity=".2" p-id="8940"></path><path d="M116.16 626.88h159.36v48.96H116.16v-48.96zM439.68 606.72l-113.92-167.36h95.68l43.2 71.04c9.92 16.32 19.2 33.28 32 54.72h2.88c10.56-21.44 19.2-38.4 28.48-54.72l40.96-71.04h91.2l-113.92 170.56 121.6 175.36h-95.68l-48.32-76.48c-11.2-17.92-21.12-35.84-33.92-56.96h-2.24c-11.2 21.12-21.12 39.36-31.68 56.96l-46.08 76.48H318.08l121.6-178.56z" fill="#2D52D6" p-id="8941"></path></svg>