<?xml version="1.0" standalone="no"?><!DOCTYPE svg PUBLIC "-//W3C//DTD SVG 1.1//EN" "http://www.w3.org/Graphics/SVG/1.1/DTD/svg11.dtd"><svg t="1759841192702" class="icon" viewBox="0 0 1024 1024" version="1.1" xmlns="http://www.w3.org/2000/svg" p-id="9974" xmlns:xlink="http://www.w3.org/1999/xlink" width="200" height="200"><path d="M0 0m128 0l768 0q128 0 128 128l0 768q0 128-128 128l-768 0q-128 0-128-128l0-768q0-128 128-128Z" fill="#FFFFFF" p-id="9975"></path><path d="M912 259.52v49.92h-49.92V259.52h49.92z m-106.88 0v49.92H755.2V259.52h49.92z m-107.52 0v49.92h-49.92V259.52h49.92z m-107.2 0v49.92h-49.92V259.52h49.92z m-106.88 0v49.92h-49.92V259.52h49.92z m-106.88 0v49.92h-49.92V259.52h49.92z m-107.52 0v49.92H219.2V259.52h49.92z m-107.2 0v49.92H112V259.52h49.92z" fill="#2D52D6" opacity=".2" p-id="9976"></path><path d="M218.88 148.48H268.8v718.4H218.88z" fill="#2D52D6" opacity=".2" p-id="9977"></path><path d="M150.4 831.04h187.52l-93.76 117.44-93.76-117.44z" fill="#2D52D6" opacity=".2" p-id="9978"></path><path d="M363.84 642.56h159.36v48.96h-159.36v-48.96zM658.24 674.24l-129.6-219.2h91.84l43.2 84.16c12.16 25.6 24 49.92 37.44 76.8h2.24c13.44-26.56 26.24-50.88 38.72-76.8l43.2-84.16h89.92l-130.24 219.2v126.72h-86.4v-126.72z" fill="#2D52D6" p-id="9979"></path></svg>