<?xml version="1.0" standalone="no"?><!DOCTYPE svg PUBLIC "-//W3C//DTD SVG 1.1//EN" "http://www.w3.org/Graphics/SVG/1.1/DTD/svg11.dtd"><svg t="1759841209977" class="icon" viewBox="0 0 1024 1024" version="1.1" xmlns="http://www.w3.org/2000/svg" p-id="11249" xmlns:xlink="http://www.w3.org/1999/xlink" width="200" height="200"><path d="M0 0m128 0l768 0q128 0 128 128l0 768q0 128-128 128l-768 0q-128 0-128-128l0-768q0-128 128-128Z" fill="#FFFFFF" p-id="11250"></path><path d="M158.08 531.84h159.36v48.96H158.08v-48.96zM386.56 648.64l201.6-246.72h-182.08v-57.6h288v41.28l-200.96 246.72h203.2v57.92h-309.44v-41.6z" fill="#2D52D6" p-id="11251"></path><path d="M537.92 112h49.92v49.92h-49.92zM644.8 112h49.92v49.92h-49.92zM752.32 112h49.92v49.92h-49.92zM859.52 112h49.92v49.92h-49.92zM109.44 112h49.92v49.92H109.44zM431.04 112h49.92v49.92h-49.92zM216.32 112h49.92v49.92H216.32zM323.84 112h49.92v49.92h-49.92zM859.52 433.6h49.92v49.92h-49.92zM859.52 326.4h49.92v49.92h-49.92zM859.52 218.88h49.92V268.8h-49.92zM859.52 647.36h49.92v49.92h-49.92zM859.52 540.48h49.92v49.92h-49.92zM859.52 862.08h49.92v49.92h-49.92zM859.52 754.88h49.92v49.92h-49.92zM294.72 691.2l-120 120-48.32-48.32c-5.76 49.6-11.2 99.52-16.96 149.12 49.92-5.44 99.84-11.2 149.44-16.64l-48.64-48.64 119.68-119.68-35.2-35.52zM694.72 290.88l120-120 34.24 36.48-118.4 118.72-35.52-35.2z" fill="#2D52D6" opacity=".2" p-id="11252"></path></svg>