<?xml version="1.0" standalone="no"?><!DOCTYPE svg PUBLIC "-//W3C//DTD SVG 1.1//EN" "http://www.w3.org/Graphics/SVG/1.1/DTD/svg11.dtd"><svg t="1759841179281" class="icon" viewBox="0 0 1024 1024" version="1.1" xmlns="http://www.w3.org/2000/svg" p-id="8787" xmlns:xlink="http://www.w3.org/1999/xlink" width="200" height="200"><path d="M0 0m128 0l768 0q128 0 128 128l0 768q0 128-128 128l-768 0q-128 0-128-128l0-768q0-128 128-128Z" fill="#FFFFFF" p-id="8788"></path><path d="M223.04 862.08h49.92v49.92H223.04v-49.92z m0-107.2h49.92v49.92H223.04v-49.92z m0-107.52h49.92v49.92H223.04v-49.92z m0-106.88h49.92v49.92H223.04v-49.92z m0-106.88h49.92v49.92H223.04v-49.92z m0-107.2h49.92v49.92H223.04V326.4z m0-107.52h49.92V268.8H223.04V218.88z m0-106.88h49.92v49.92H223.04V112z" fill="#2D52D6" opacity=".2" p-id="8789"></path><path d="M112 218.88h718.4V268.8H112z" fill="#2D52D6" opacity=".2" p-id="8790"></path><path d="M912 244.16l-117.44 93.76V150.4l117.44 93.76z" fill="#2D52D6" opacity=".2" p-id="8791"></path><path d="M535.36 606.72l-113.92-167.36h95.68l43.2 71.04c9.92 16.32 19.2 33.28 32 54.72h2.88c10.56-21.44 19.2-38.4 28.48-54.72l40.96-71.04h91.2l-113.92 170.56 121.6 175.36h-95.68l-48.32-76.48c-11.2-17.92-21.12-35.84-33.92-56.96h-2.24c-11.2 21.12-21.12 39.36-31.68 56.96l-46.08 76.48h-91.84l121.6-178.56z" fill="#2D52D6" p-id="8792"></path></svg>