<?xml version="1.0" standalone="no"?><!DOCTYPE svg PUBLIC "-//W3C//DTD SVG 1.1//EN" "http://www.w3.org/Graphics/SVG/1.1/DTD/svg11.dtd"><svg t="1759841196011" class="icon" viewBox="0 0 1024 1024" version="1.1" xmlns="http://www.w3.org/2000/svg" p-id="10125" xmlns:xlink="http://www.w3.org/1999/xlink" width="200" height="200"><path d="M0 0m128 0l768 0q128 0 128 128l0 768q0 128-128 128l-768 0q-128 0-128-128l0-768q0-128 128-128Z" fill="#FFFFFF" p-id="10126"></path><path d="M862.08 800.96v-49.92h49.92v49.92h-49.92z m-107.2 0v-49.92h49.92v49.92h-49.92z m-107.52 0v-49.92h49.92v49.92h-49.92z m-106.88 0v-49.92h49.92v49.92h-49.92z m-106.88 0v-49.92h49.92v49.92h-49.92z m-107.2 0v-49.92h49.92v49.92H326.4z m-107.52 0v-49.92H268.8v49.92H218.88z m-106.88 0v-49.92h49.92v49.92H112z" fill="#2D52D6" opacity=".2" p-id="10127"></path><path d="M218.88 193.6H268.8V912H218.88z" fill="#2D52D6" opacity=".2" p-id="10128"></path><path d="M244.16 112l93.76 117.44H150.4L244.16 112z" fill="#2D52D6" opacity=".2" p-id="10129"></path><path d="M556.16 533.44l-129.6-219.2h91.84l43.2 84.16c12.16 25.6 24 49.92 37.44 76.8h2.24c13.44-26.56 26.24-50.88 38.72-76.8l43.2-84.16h89.92l-130.24 219.2v126.72h-86.4v-126.72z" fill="#2D52D6" p-id="10130"></path></svg>