<?xml version="1.0" standalone="no"?><!DOCTYPE svg PUBLIC "-//W3C//DTD SVG 1.1//EN" "http://www.w3.org/Graphics/SVG/1.1/DTD/svg11.dtd"><svg t="1759841206033" class="icon" viewBox="0 0 1024 1024" version="1.1" xmlns="http://www.w3.org/2000/svg" p-id="11101" xmlns:xlink="http://www.w3.org/1999/xlink" width="200" height="200"><path d="M0 0m128 0l768 0q128 0 128 128l0 768q0 128-128 128l-768 0q-128 0-128-128l0-768q0-128 128-128Z" fill="#FFFFFF" p-id="11102"></path><path d="M433.6 862.08h49.92v49.92h-49.92zM326.4 862.08h49.92v49.92H326.4zM218.88 862.08H268.8v49.92H218.88zM112 862.08h49.92v49.92H112zM862.08 862.08h49.92v49.92h-49.92zM540.48 862.08h49.92v49.92h-49.92zM754.88 862.08h49.92v49.92h-49.92zM647.36 862.08h49.92v49.92h-49.92zM112 540.48h49.92v49.92H112zM112 647.36h49.92v49.92H112zM112 754.88h49.92v49.92H112zM112 326.4h49.92v49.92H112zM112 433.6h49.92v49.92H112zM112 112h49.92v49.92H112zM112 218.88h49.92V268.8H112zM726.72 332.8l120-120 48.32 48.32c5.76-49.6 11.2-99.52 16.96-149.12-49.92 5.44-99.84 11.2-149.44 16.64l48.64 48.64-119.68 119.68 35.2 35.52z" fill="#2D52D6" opacity=".2" p-id="11103"></path><path d="M368.64 648.64l201.6-246.72h-182.08v-57.6h288v41.28l-200.96 246.72h203.2v57.92h-309.44v-41.6z" fill="#2D52D6" p-id="11104"></path><path d="M326.72 733.12l-120 120-34.24-36.48 118.4-118.72 35.52 35.2z" fill="#2D52D6" opacity=".2" p-id="11105"></path></svg>