<?xml version="1.0" standalone="no"?><!DOCTYPE svg PUBLIC "-//W3C//DTD SVG 1.1//EN" "http://www.w3.org/Graphics/SVG/1.1/DTD/svg11.dtd"><svg t="1759841151695" class="icon" viewBox="0 0 1024 1024" version="1.1" xmlns="http://www.w3.org/2000/svg" p-id="7799" xmlns:xlink="http://www.w3.org/1999/xlink" width="200" height="200"><path d="M483.771733 636.228267l-48.4864-82.619734 16.776534-9.864533 48.469333 82.602667z m51.0976 15.940266l-106.1376-213.026133 17.373867-8.6528 106.120533 213.026133z m60.501334 19.643734l-166.570667-320.9728 17.220267-8.96 166.570666 320.9728z m53.248 17.152l-219.818667-425.079467 17.220267-8.942933 219.818666 425.0624z m58.606933 18.875733L428.731733 155.8528l17.373867-8.789333L724.599467 699.050667z m73.386667 23.517867L459.229867 87.739733l17.373866-8.6528 321.399467 643.6352z m94.037333 30.498133L534.9376 112.2304l17.220267-8.942933 339.712 649.6256z m45.858133-53.777067L613.2224 137.5744l17.066667-9.250133 307.3024 570.504533z m0.1024-135.048533L684.168533 160.631467l16.827734-9.710934L937.472 563.319467z m0.085334-125.8496l-153.6-259.771733 16.6912-9.847467 153.6 259.754667z m0.221866-129.501867l-66.338133-101.7344 16.2304-10.615466 66.338133 101.7344z" fill="#8C8C8C" p-id="7800"></path><path d="M938.769067 785.4592l-511.061334-164.778667V60.194133l511.061334 164.778667zM447.146667 606.5664l472.2176 152.183467V239.086933L447.146667 86.903467z" fill="#050505" p-id="7801"></path><path d="M99.396267 822.4768l-9.7792-16.8448 342.903466-200.430933 9.7792 16.8448z" fill="#050505" p-id="7802"></path><path d="M522.0864 963.1232L84.804267 822.101333V342.6304l437.282133 140.9536z m-417.860267-155.136l398.4384 128.443733V497.698133L104.226133 369.339733z" fill="#050505" p-id="7803"></path></svg>