<?xml version="1.0" standalone="no"?><!DOCTYPE svg PUBLIC "-//W3C//DTD SVG 1.1//EN" "http://www.w3.org/Graphics/SVG/1.1/DTD/svg11.dtd"><svg t="1759841119811" class="icon" viewBox="0 0 1024 1024" version="1.1" xmlns="http://www.w3.org/2000/svg" p-id="6689" xmlns:xlink="http://www.w3.org/1999/xlink" width="200" height="200"><path d="M762.953143 823.296A469.504 469.504 0 0 1 50.468571 512 468.553143 468.553143 0 0 1 192.877714 253.074286L59.465143 119.734857l60.342857-60.342857 844.8 844.8-60.416 60.342857-141.165714-141.238857z m-509.732572-509.805714A382.537143 382.537143 0 0 0 137.508571 512a384.219429 384.219429 0 0 0 563.2 249.051429L614.326857 674.523429a192 192 0 0 1-264.777143-264.777143L253.220571 313.563429z m297.764572 297.837714l-138.24-138.313143a106.642286 106.642286 0 0 0 138.24 138.24z m336.749714 96.548571l-61.001143-61.001142A381.220571 381.220571 0 0 0 886.491429 512a384.219429 384.219429 0 0 0-478.939429-284.233143l-67.291429-67.364571A469.504 469.504 0 0 1 973.677714 512a467.017143 467.017143 0 0 1-85.942857 195.949714zM500.150857 320.365714A192 192 0 0 1 703.634286 523.849143L500.150857 320.365714z" p-id="6690"></path></svg>