<?xml version="1.0" standalone="no"?><!DOCTYPE svg PUBLIC "-//W3C//DTD SVG 1.1//EN" "http://www.w3.org/Graphics/SVG/1.1/DTD/svg11.dtd"><svg t="1759841235401" class="icon" viewBox="0 0 1024 1024" version="1.1" xmlns="http://www.w3.org/2000/svg" p-id="12294" xmlns:xlink="http://www.w3.org/1999/xlink" width="200" height="200"><path d="M234.666667 224a10.666667 10.666667 0 0 0-10.666667 10.666667v149.333333a32 32 0 0 1-64 0v-149.333333A74.666667 74.666667 0 0 1 234.666667 160h149.333333a32 32 0 0 1 0 64h-149.333333zM597.333333 405.333333a21.333333 21.333333 0 0 1 21.333334 21.333334v170.666666a21.333333 21.333333 0 0 1-21.333334 21.333334h-170.666666a21.333333 21.333333 0 0 1-21.333334-21.333334v-170.666666a21.333333 21.333333 0 0 1 21.333334-21.333334h170.666666z m-170.666666-64a85.333333 85.333333 0 0 0-85.333334 85.333334v170.666666a85.333333 85.333333 0 0 0 85.333334 85.333334h170.666666a85.333333 85.333333 0 0 0 85.333334-85.333334v-170.666666a85.333333 85.333333 0 0 0-85.333334-85.333334h-170.666666z m-202.666667 448a10.666667 10.666667 0 0 0 10.666667 10.666667h149.333333a32 32 0 0 1 0 64h-149.333333A74.666667 74.666667 0 0 1 160 789.333333v-149.333333a32 32 0 0 1 64 0v149.333333z m565.333333 10.666667a10.666667 10.666667 0 0 0 10.666667-10.666667v-149.333333a32 32 0 0 1 64 0v149.333333a74.666667 74.666667 0 0 1-74.666667 74.666667h-149.333333a32 32 0 0 1 0-64h149.333333z m10.666667-565.333333a10.666667 10.666667 0 0 0-10.666667-10.666667h-149.333333a32 32 0 0 1 0-64h149.333333a74.666667 74.666667 0 0 1 74.666667 74.666667v149.333333a32 32 0 0 1-64 0v-149.333333z" fill="#000000" p-id="12295"></path></svg>